<svg xmlns="http://www.w3.org/2000/svg" viewBox="0 0 32 32" fill="none">
  <rect width="32" height="32" rx="8" fill="#0F172A"/>
  <rect width="32" height="32" rx="8" fill="url(#grad)" fill-opacity="0.25"/>
  <!-- Database Layers -->
  <ellipse cx="16" cy="9" rx="8.5" ry="3.2" stroke="#6366F1" stroke-width="2" fill="#1E1B4B"/>
  <path d="M7.5 9v5.5c0 1.77 3.8 3.2 8.5 3.2s8.5-1.43 8.5-3.2V9" stroke="#6366F1" stroke-width="2"/>
  <path d="M7.5 14.5v5.5c0 1.77 3.8 3.2 8.5 3.2s8.5-1.43 8.5-3.2v-5.5" stroke="#818CF8" stroke-width="2"/>
  <!-- AI Sparkle Icon -->
  <path d="M22 5L22.8 7.2L25 8L22.8 8.8L22 11L21.2 8.8L19 8L21.2 7.2L22 5Z" fill="#F59E0B"/>
  <defs>
    <linearGradient id="grad" x1="0" y1="0" x2="32" y2="32" gradientUnits="userSpaceOnUse">
      <stop stop-color="#4F46E5"/>
      <stop offset="1" stop-color="#06B6D4"/>
    </linearGradient>
  </defs>
</svg>
